# xmcd
#
# Track frame offsets:
#	150
#	22044
#	29990
#	46807
#	52291
#	58649
#	65470
#	70889
#	75343
#	84460
#	95404
#	97810
#	112777
#	201790
#	205441
#	210102
#	215099
#
# Disc length: 2917 seconds
#
# Revision: 0
# Processed by: cddbd v1.5.1PL0 Copyright (c) Steve Scherf et al.
# Submitted via: dBpowerAMP V4.0
#
DISCID=ee0b6311
DTITLE=¸t¸g-ÂÂ¬ù - Disc 42
DYEAR=1900
DGENRE=
TTITLE0=¸Ö½g²Ä107½g
TTITLE1=¸Ö½g²Ä108½g
TTITLE2=¸Ö½g²Ä109½g
TTITLE3=¸Ö½g²Ä110½g
TTITLE4=¸Ö½g²Ä111½g
TTITLE5=¸Ö½g²Ä112½g
TTITLE6=¸Ö½g²Ä113½g
TTITLE7=¸Ö½g²Ä114½g
TTITLE8=¸Ö½g²Ä115½g
TTITLE9=¸Ö½g²Ä116½g
TTITLE10=¸Ö½g²Ä117½g
TTITLE11=¸Ö½g²Ä118½g
TTITLE12=¸Ö½g²Ä119½g
TTITLE13=¸Ö½g²Ä120½g
TTITLE14=¸Ö½g²Ä121½g
TTITLE15=¸Ö½g²Ä122½g
TTITLE16=¸Ö½g²Ä123½g
EXTD=
EXTT0=
EXTT1=
EXTT2=
EXTT3=
EXTT4=
EXTT5=
EXTT6=
EXTT7=
EXTT8=
EXTT9=
EXTT10=
EXTT11=
EXTT12=
EXTT13=
EXTT14=
EXTT15=
EXTT16=
PLAYORDER=
